# xmcd
#
# Track frame offsets:
#	150
#	13575
#	26615
#	39527
#	52679
#	67181
#	82443
#	95597
#	109471
#	122988
#	136695
#	151370
#	165932
#	180424
#	195144
#	208321
#	220976
#	232968
#	246915
#	261680
#
# Disc length: 3667 seconds
#
# Revision: 0
# Processed by: cddbd v1.4PL0 Copyright (c) Steve Scherf et al.
# Submitted via: dBpowerAMP V4.0
#
DISCID=1e0e5114
DTITLE=Various Artist - The Essential Country Blues Guitar Collection vol 4
DYEAR=1999
DGENRE=blues
TTITLE0=Stomping 'em along slow - Lonnie Johnson
TTITLE1=I'm so glad - Skip James
TTITLE2=Blue day blues - Scrapper Blackwell
TTITLE3=Catfish Blues - Robert Petway
TTITLE4=Green River Blues - Charlie Patton
TTITLE5=Rolling log blues - Lottie Kimbrough
TTITLE6=Kindhearted woman blues - Robert Johnson
TTITLE7=Mistreated blues - Henry Townsend
TTITLE8=Outside woman blues - Blind Joe Reynolds
TTITLE9=I believe I'll dust my broom - Robert Johnson
TTITLE10=Good boy blues - Arthur Pettis
TTITLE11=Turn your money green - Furry Lewis
TTITLE12=Twelve pound daddy - Pearl Dickson/Pet and Can
TTITLE13=Weeping willow blues - Blind Boy Fuller
TTITLE14=Police dog blues - Blind Blake
TTITLE15=The law's gonna step on you - Bo Carter
TTITLE16=Blue goose blues - Jesse Babyface Thomas
TTITLE17=Good gal - Josh White
TTITLE18=A spoonful blues - Charlie Patton
TTITLE19=Brownskin shuffle - Big Bill Broonzy
EXTD=
EXTT0=
EXTT1=
EXTT2=
EXTT3=
EXTT4=
EXTT5=
EXTT6=
EXTT7=
EXTT8=
EXTT9=
EXTT10=
EXTT11=
EXTT12=
EXTT13=
EXTT14=
EXTT15=
EXTT16=
EXTT17=
EXTT18=
EXTT19=
PLAYORDER=
